<?xml version="1.0" encoding="UTF-8" standalone="no"?>
<!-- Created with Inkscape (http://www.inkscape.org/) -->

<svg width="100" height="100" viewBox="0 0 100 100" version="1.1" id="svg1" xml:space="preserve"
  xmlns="http://www.w3.org/2000/svg" xmlns:svg="http://www.w3.org/2000/svg">
  <style>
    #tomb { fill: black; }
    @media (prefers-color-scheme: dark) {
      #tomb { fill: #ddd; }
    }
  </style>
  <defs id="defs1" />
  <g id="group1" transform="translate(-62.574976,-54.89532)">
    <path id="tomb"
      d="m 91.555169,75.915135 a 28.980462,28.980462 0 0 0 -28.980196,28.980185 28.980462,28.980462 0 0 0 28.980196,28.98018 28.980462,28.980462 0 0 0 21.019791,-9.11983 28.980462,28.980462 0 0 0 21.01982,9.11983 28.980462,28.980462 0 0 0 28.98019,-28.98018 28.980462,28.980462 0 0 0 -28.98019,-28.980185 28.980462,28.980462 0 0 0 -21.01982,9.119822 28.980462,28.980462 0 0 0 -21.019791,-9.119822 z m 0,11.150381 a 17.829935,17.829935 0 0 1 14.835331,8.049312 28.980462,28.980462 0 0 0 -1.77645,9.780492 28.980462,28.980462 0 0 0 1.77645,9.78049 17.829935,17.829935 0 0 1 -14.835331,8.04931 17.829935,17.829935 0 0 1 -17.829792,-17.8298 17.829935,17.829935 0 0 1 17.829792,-17.829804 z" />
  </g>
</svg>