<?xml version="1.0" encoding="UTF-8" standalone="no"?>
<!-- Created with Inkscape (http://www.inkscape.org/) -->

<svg
   width="1000"
   height="1000"
   viewBox="0 0 1000 1000"
   version="1.1"
   id="svg1"
   xmlns="http://www.w3.org/2000/svg"
   xmlns:svg="http://www.w3.org/2000/svg">
  <defs
     id="defs1" />
  <g
     id="layer1">
    <path
       style="fill:#a64bff;fill-opacity:1;stroke-width:1.44;stroke-linecap:round;stroke-linejoin:round"
       id="path1"
       d="m 573.44954,342.06021 -92.15597,159.61881 a 52.120424,52.120424 150 0 1 -45.13761,26.06021 H 251.84404 A 52.120424,52.120424 30 0 1 206.70643,501.67902 L 114.55046,342.06021 a 52.120424,52.120424 90 0 1 0,-52.12042 l 92.15597,-159.61881 a 52.120424,52.120424 150 0 1 45.13761,-26.06021 l 184.31192,0 a 52.120424,52.120424 30 0 1 45.13761,26.06021 l 92.15597,159.61881 a 52.120424,52.120424 90 0 1 0,52.12042 z"
       transform="matrix(1.2301284,0,0,1.2301284,285.99453,111.27942)" />
    <path
       id="path1-9"
       style="baseline-shift:baseline;display:inline;overflow:visible;opacity:1;vector-effect:none;fill:#a64bff;fill-opacity:1;stroke-width:1.06968;stroke-linecap:round;stroke-linejoin:round;enable-background:accumulate;stop-color:#000000;stop-opacity:1"
       d="m 188.28175,239.53356 c -32.00153,0 -61.70463,17.14893 -77.7054,44.86305 L 12.00057,455.13695 c -16.0007601,27.71414 -16.0007601,62.01197 0,89.7261 l 98.57578,170.74034 c 16.00077,27.71414 45.70387,44.86305 77.7054,44.86305 h 197.15368 c 32.00152,0 61.70462,-17.14891 77.7054,-44.86305 l 12.3111,-21.324 -39.23106,-67.9485 -31.92451,55.29824 c -3.91753,6.78535 -11.02588,10.88881 -18.86093,10.8888 H 188.28175 c -7.83504,0 -14.94341,-4.10345 -18.86093,-10.8888 L 70.845048,510.8888 c -3.917513,-6.78536 -3.917513,-14.99225 0,-21.7776 L 169.42082,318.37087 c 3.91752,-6.78536 11.02589,-10.8888 18.86093,-10.8888 h 197.15368 c 7.83505,0 14.9434,4.10344 18.86093,10.8888 l 31.92451,55.29824 39.23106,-67.9485 -12.3111,-21.324 c -16.00078,-27.71412 -45.70388,-44.86305 -77.7054,-44.86305 z" />
  </g>
</svg>
